<svg width="145" height="136" viewBox="0 0 145 136" fill="none" xmlns="http://www.w3.org/2000/svg">
<path d="M144.929 57.9714H125.605V38.6476H115.943V57.9714H96.6195V67.6334H115.943V86.9572H125.605V67.6334H144.929V57.9714Z" fill="#FFD400"/>
<path d="M48.3096 9.66193C53.087 9.66193 57.7571 11.0786 61.7293 13.7328C65.7016 16.3869 68.7976 20.1594 70.6258 24.5731C72.454 28.9868 72.9323 33.8436 72.0003 38.5291C71.0683 43.2147 68.7678 47.5187 65.3897 50.8968C62.0116 54.2749 57.7076 56.5754 53.022 57.5075C48.3364 58.4395 43.4797 57.9611 39.066 56.1329C34.6523 54.3047 30.8798 51.2087 28.2256 47.2365C25.5714 43.2642 24.1548 38.5941 24.1548 33.8168C24.1548 27.4105 26.6997 21.2666 31.2296 16.7367C35.7595 12.2068 41.9034 9.66193 48.3096 9.66193ZM48.3096 0C41.6213 0 35.0832 1.98332 29.522 5.69915C23.9609 9.41499 19.6265 14.6964 17.067 20.8756C14.5075 27.0549 13.8378 33.8543 15.1426 40.4141C16.4475 46.9739 19.6682 52.9995 24.3976 57.7288C29.1269 62.4582 35.1525 65.6789 41.7123 66.9837C48.2721 68.2886 55.0715 67.6189 61.2507 65.0594C67.4299 62.4999 72.7114 58.1655 76.4272 52.6043C80.1431 47.0432 82.1264 40.5051 82.1264 33.8168C82.1264 24.848 78.5636 16.2466 72.2217 9.9047C65.8798 3.56283 57.2784 0 48.3096 0Z" fill="#FFD400"/>
<path d="M96.6193 135.267H86.9574V111.112C86.9574 104.706 84.4125 98.562 79.8826 94.0321C75.3527 89.5022 69.2088 86.9573 62.8026 86.9573H33.8168C27.4105 86.9573 21.2666 89.5022 16.7367 94.0321C12.2068 98.562 9.66193 104.706 9.66193 111.112V135.267H0V111.112C0 102.143 3.56283 93.542 9.9047 87.2001C16.2466 80.8582 24.848 77.2954 33.8168 77.2954H62.8026C71.7713 77.2954 80.3727 80.8582 86.7146 87.2001C93.0565 93.542 96.6193 102.143 96.6193 111.112V135.267Z" fill="#FFD400"/>
</svg>
