<svg width="20" height="28" viewBox="0 0 20 28" fill="none" xmlns="http://www.w3.org/2000/svg">
<path d="M7.29817 26.7544H12.3367H7.29817ZM1 10.014C1 7.62336 1.92898 5.33061 3.58257 3.64015C5.23616 1.94969 7.47891 1 9.81744 1C12.156 1 14.3987 1.94969 16.0523 3.64015C17.7059 5.33061 18.6349 7.62336 18.6349 10.014C18.6357 11.4654 18.2923 12.8953 17.6342 14.1813C16.9761 15.4673 16.0228 16.571 14.856 17.3978L14.1733 20.7021C14.0829 21.3111 13.7819 21.8669 13.325 22.2685C12.8681 22.6702 12.2856 22.8911 11.683 22.8912H7.95193C7.34934 22.8911 6.76675 22.6702 6.30985 22.2685C5.85296 21.8669 5.55202 21.3111 5.46163 20.7021L4.77891 17.412C3.61174 16.5822 2.6584 15.4759 2.00034 14.1876C1.34228 12.8994 0.999063 11.4674 1 10.014V10.014Z" stroke="white" stroke-width="1.5" stroke-linecap="round" stroke-linejoin="round"/>
<path d="M4.77881 17.7402H14.8559" stroke="white" stroke-width="1.5" stroke-linecap="round" stroke-linejoin="round"/>
</svg>
