<svg width="101" height="83" viewBox="0 0 101 83" fill="none" xmlns="http://www.w3.org/2000/svg">
<path d="M101 9.84531C97.2858 11.509 93.2958 12.6332 89.1012 13.1413C93.4292 10.5234 96.6672 6.40304 98.211 1.54915C94.1447 3.99074 89.6943 5.70935 85.0533 6.63027C81.9324 3.26174 77.7987 1.02901 73.2938 0.278753C68.789 -0.471509 64.1652 0.302663 60.1402 2.48108C56.1153 4.65949 52.9144 8.12026 51.0345 12.3261C49.1546 16.5319 48.7009 21.2475 49.7438 25.7407C41.5044 25.3225 33.4441 23.1576 26.0859 19.3866C18.7278 15.6156 12.2362 10.3227 7.03255 3.85139C5.25328 6.95402 4.2302 10.5513 4.2302 14.3824C4.22822 17.8312 5.06838 21.2272 6.67615 24.2691C8.28392 27.311 10.6096 29.9047 13.4468 31.82C10.1564 31.7142 6.93857 30.8154 4.06117 29.1985V29.4683C4.06084 34.3055 5.71604 38.9938 8.7459 42.7377C11.7758 46.4816 15.9937 49.0506 20.684 50.0087C17.6316 50.8437 14.4313 50.9667 11.325 50.3684C12.6483 54.5305 15.226 58.17 18.6973 60.7776C22.1685 63.3852 26.3594 64.8301 30.6834 64.9103C23.3432 70.7352 14.2781 73.8948 4.94636 73.8809C3.29334 73.8814 1.64171 73.7838 0 73.5886C9.47226 79.7452 20.4987 83.0126 31.7599 83C69.8806 83 90.7203 51.0833 90.7203 23.4025C90.7203 22.5032 90.6981 21.5948 90.658 20.6955C94.7116 17.7322 98.2106 14.0626 100.991 9.85881L101 9.84531Z" fill="#FFD400"/>
</svg>
