<svg width="101" height="98" viewBox="0 0 101 98" fill="none" xmlns="http://www.w3.org/2000/svg">
<path d="M22.9278 98V31.8796H1.27737V98H22.9278ZM12.1054 22.8465C19.6553 22.8465 24.3547 17.7692 24.3547 11.4243C24.214 4.93635 19.6556 0 12.2487 0C4.8429 0 0 4.93645 0 11.4243C0 17.7695 4.69828 22.8465 11.964 22.8465H12.1054ZM34.9112 98H56.5617V61.0751C56.5617 59.0989 56.7023 57.1248 57.2741 55.7122C58.8392 51.7638 62.4016 47.6745 68.3823 47.6745C76.2167 47.6745 79.3509 53.738 79.3509 62.6265V97.9995H101V60.0867C101 39.7771 90.3188 30.3272 76.0741 30.3272C64.3946 30.3272 59.2665 36.9542 56.4176 41.4678H56.5621V31.8782H34.9117C35.1959 38.0826 34.9112 98 34.9112 98Z" fill="#FFD400"/>
</svg>
