<svg width="101" height="101" viewBox="0 0 101 101" fill="none" xmlns="http://www.w3.org/2000/svg">
<path fill-rule="evenodd" clip-rule="evenodd" d="M29.6802 0.303C35.0654 0.0550908 36.7824 0 50.5 0C64.2176 0 65.9346 0.0596818 71.3152 0.303C76.6957 0.546318 80.3685 1.40482 83.5821 2.64895C86.9472 3.92064 90.0002 5.9085 92.5252 8.47941C95.0961 10.9998 97.0794 14.0482 98.3465 17.4179C99.5952 20.6315 100.449 24.3043 100.697 29.6756C100.945 35.07 101 36.787 101 50.5C101 64.2176 100.94 65.9346 100.697 71.3198C100.454 76.6911 99.5952 80.3639 98.3465 83.5775C97.0793 86.9477 95.0928 90.0011 92.5252 92.5252C90.0002 95.0961 86.9472 97.0794 83.5821 98.3465C80.3685 99.5952 76.6957 100.449 71.3244 100.697C65.9346 100.945 64.2176 101 50.5 101C36.7824 101 35.0654 100.94 29.6802 100.697C24.3089 100.454 20.6361 99.5952 17.4225 98.3465C14.0524 97.0792 10.999 95.0927 8.47482 92.5252C5.90565 90.0033 3.91749 86.9513 2.64895 83.5821C1.40482 80.3685 0.550909 76.6957 0.303 71.3244C0.0550908 65.93 0 64.213 0 50.5C0 36.7824 0.0596818 35.0654 0.303 29.6848C0.546318 24.3043 1.40482 20.6315 2.64895 17.4179C3.91936 14.0486 5.90904 10.9967 8.47941 8.47482C11 5.90621 14.0503 3.91808 17.4179 2.64895C20.6315 1.40482 24.3043 0.550909 29.6756 0.303H29.6802ZM70.9066 9.393C65.5811 9.14968 63.9835 9.09918 50.5 9.09918C37.0165 9.09918 35.4189 9.14968 30.0934 9.393C25.1674 9.61795 22.4955 10.4397 20.7142 11.133C18.359 12.0511 16.6742 13.1392 14.9067 14.9067C13.2312 16.5367 11.9418 18.521 11.133 20.7142C10.4397 22.4955 9.61795 25.1674 9.393 30.0934C9.14968 35.4189 9.09918 37.0165 9.09918 50.5C9.09918 63.9835 9.14968 65.5811 9.393 70.9066C9.61795 75.8326 10.4397 78.5045 11.133 80.2858C11.941 82.4757 13.231 84.4635 14.9067 86.0933C16.5365 87.769 18.5243 89.059 20.7142 89.8671C22.4955 90.5603 25.1674 91.382 30.0934 91.607C35.4189 91.8503 37.0119 91.9008 50.5 91.9008C63.9881 91.9008 65.5811 91.8503 70.9066 91.607C75.8326 91.382 78.5045 90.5603 80.2858 89.8671C82.641 88.9489 84.3258 87.8608 86.0933 86.0933C87.769 84.4635 89.059 82.4757 89.8671 80.2858C90.5603 78.5045 91.382 75.8326 91.607 70.9066C91.8503 65.5811 91.9008 63.9835 91.9008 50.5C91.9008 37.0165 91.8503 35.4189 91.607 30.0934C91.382 25.1674 90.5603 22.4955 89.8671 20.7142C88.9489 18.359 87.8608 16.6742 86.0933 14.9067C84.4632 13.2313 82.4789 11.9419 80.2858 11.133C78.5045 10.4397 75.8326 9.61795 70.9066 9.393ZM44.0498 66.0678C47.6521 67.5673 51.6632 67.7697 55.3982 66.6404C59.1331 65.511 62.3601 63.12 64.528 59.8758C66.6959 56.6315 67.6702 52.7352 67.2846 48.8523C66.8989 44.9695 65.1772 41.341 62.4134 38.5866C60.6516 36.8259 58.5213 35.4777 56.1759 34.6391C53.8305 33.8005 51.3283 33.4923 48.8495 33.7368C46.3708 33.9813 43.977 34.7724 41.8406 36.053C39.7043 37.3337 37.8784 39.0721 36.4945 41.143C35.1106 43.214 34.2031 45.5661 33.8374 48.0299C33.4716 50.4937 33.6566 53.008 34.3792 55.3917C35.1018 57.7754 36.3438 59.9693 38.016 61.8153C39.6882 63.6614 41.7489 65.1137 44.0498 66.0678ZM32.1455 32.1455C34.5559 29.7352 37.4174 27.8232 40.5666 26.5187C43.7159 25.2143 47.0913 24.5429 50.5 24.5429C53.9087 24.5429 57.2841 25.2143 60.4334 26.5187C63.5826 27.8232 66.4441 29.7352 68.8545 32.1455C71.2648 34.5559 73.1768 37.4174 74.4812 40.5666C75.7857 43.7159 76.4571 47.0913 76.4571 50.5C76.4571 53.9087 75.7857 57.2841 74.4812 60.4334C73.1768 63.5826 71.2648 66.4441 68.8545 68.8545C63.9865 73.7224 57.3843 76.4571 50.5 76.4571C43.6157 76.4571 37.0134 73.7224 32.1455 68.8545C27.2776 63.9865 24.5429 57.3843 24.5429 50.5C24.5429 43.6157 27.2776 37.0134 32.1455 32.1455ZM82.214 28.4085C82.8113 27.8451 83.2895 27.1675 83.6202 26.416C83.951 25.6644 84.1275 24.8541 84.1395 24.0331C84.1515 23.2121 83.9986 22.397 83.6899 21.6361C83.3812 20.8752 82.923 20.184 82.3424 19.6034C81.7617 19.0227 81.0705 18.5645 80.3096 18.2558C79.5488 17.9471 78.7337 17.7943 77.9126 17.8062C77.0916 17.8182 76.2813 17.9948 75.5298 18.3255C74.7782 18.6563 74.1006 19.1344 73.5372 19.7317C72.4414 20.8934 71.8414 22.4363 71.8647 24.0331C71.888 25.6298 72.5327 27.1547 73.6618 28.2839C74.7911 29.4131 76.3159 30.0577 77.9126 30.081C79.5094 30.1043 81.0524 29.5043 82.214 28.4085Z" fill="#FFD400"/>
</svg>
