<svg width="472" height="316" viewBox="0 0 472 316" fill="none" xmlns="http://www.w3.org/2000/svg">
<path d="M61.2011 211.129C59.1611 210.583 57.598 209.369 56.5119 207.488C55.4258 205.606 55.156 203.646 55.7027 201.606L89.8419 74.1963L43.6629 61.8227C41.6229 61.2761 40.0598 60.0622 38.9737 58.181C37.8876 56.2997 37.6179 54.3391 38.1645 52.2991L50.1654 7.51104C50.712 5.47101 51.9259 3.90794 53.8072 2.82182C55.6884 1.7357 57.649 1.46595 59.689 2.01258L222.706 45.693C224.746 46.2396 226.309 47.4535 227.396 49.3347C228.482 51.2159 228.751 53.1765 228.205 55.2166L216.204 100.005C215.657 102.045 214.443 103.608 212.562 104.694C210.681 105.78 208.72 106.05 206.68 105.503L160.501 93.1295L126.362 220.539C125.815 222.579 124.602 224.142 122.72 225.228C120.839 226.314 118.878 226.584 116.838 226.037L61.2011 211.129Z" fill="#FFFAFF"/>
<path d="M122.564 298.761C120.524 298.215 118.961 297.001 117.875 295.12C116.788 293.238 116.519 291.278 117.065 289.238L165.218 109.529C165.765 107.489 166.979 105.926 168.86 104.84C170.741 103.754 172.702 103.484 174.742 104.031L231.492 119.237C233.532 119.783 235.095 120.997 236.181 122.879C237.267 124.76 237.537 126.72 236.99 128.76L188.838 308.469C188.291 310.509 187.077 312.072 185.196 313.158C183.315 314.244 181.354 314.514 179.314 313.967L122.564 298.761Z" fill="#FFFAFF"/>
<path d="M219.564 253.761C217.524 253.215 215.961 252.001 214.875 250.12C213.788 248.238 213.519 246.278 214.065 244.238L262.218 64.5292C262.765 62.4891 263.979 60.9261 265.86 59.8399C267.741 58.7538 269.702 58.4841 271.742 59.0307L315.695 70.808C319.404 71.8019 321.913 73.5673 323.221 76.1043C324.529 78.6412 325.337 80.4479 325.645 81.5243L348.092 159.097L406.319 103.141C407.124 102.363 408.727 101.202 411.128 99.6589C413.529 98.1158 416.584 97.8411 420.293 98.835L464.247 110.612C466.287 111.159 467.85 112.373 468.936 114.254C470.022 116.135 470.292 118.096 469.745 120.136L421.593 299.845C421.046 301.885 419.832 303.448 417.951 304.534C416.07 305.62 414.109 305.89 412.069 305.343L361.717 291.851C359.677 291.305 358.114 290.091 357.028 288.209C355.942 286.328 355.672 284.368 356.219 282.328L376.643 206.104L350.232 231.229C348.907 232.464 347.187 233.693 345.07 234.915C343.189 236.001 340.858 236.171 338.076 235.426L318.603 230.208C315.821 229.463 313.794 228.124 312.522 226.193C311.486 224.127 310.703 222.227 310.173 220.495L299.863 185.531L279.439 261.755C278.893 263.795 277.679 265.358 275.797 266.444C273.916 267.53 271.956 267.8 269.916 267.253L219.564 253.761Z" fill="#FFFAFF"/>
</svg>
