<svg id="Layer_1" data-name="Layer 1" xmlns="http://www.w3.org/2000/svg" viewBox="0 0 361.38 138.96"><defs><style>.cls-1,.cls-2{fill:#111111;}.cls-2{fill-rule:evenodd;}</style></defs><path class="cls-1" d="M159.46,399.21l-5.36,9.25c21.42,13.87,34.45,33.47,38.28,41.09H194a127,127,0,0,0-34.51-50.34Z" transform="translate(-125.88 -327.02)"/><path class="cls-1" d="M164.44,390.6c23,20.75,30.54,49.45,31.91,58.95h1.48c-.87-12.65-6.31-48.4-27.33-69.41l-6.06,10.46Z" transform="translate(-125.88 -327.02)"/><path class="cls-1" d="M250.25,416.76l0-.05a121.56,121.56,0,0,0-43.32,32.85h1.51c1.17-1,4.24-3.27,5.93-4.63a127.53,127.53,0,0,1,39.81-18.59l15.11,26.29-60.83,0v-3.1H190.31v3.06H131.82L157,410.2l-2.86-1.74L125.88,456h64.43v-3.07h18.12V456l66.77,0s-17.78-30.41-17.49-30.47c18.22-4.1,31.13-2.33,32.54-2.11l7.27-15.6a105.42,105.42,0,0,0-47.27,9Z" transform="translate(-125.88 -327.02)"/><path class="cls-1" d="M241.28,397.1,200.93,327l-24.22,42.39c6.25,6.6,23.15,28.94,23.52,80.14h1.82c1.25-52.59-10.19-77.78-16.92-87.9L201,333.76l37.71,65.49c-23.87,20.2-33.56,46.05-35,50.3h1.64c3.12-5.87,12.34-18.61,24.11-29.7,29.78-27.78,64.49-28.23,75.38-27.59L313,374.5c-31.66-1-55,9.28-71.74,22.6Z" transform="translate(-125.88 -327.02)"/><path class="cls-1" d="M338.66,434a10.28,10.28,0,0,0-6.35-2c-5.1,0-10.24,3.25-12.09,7.61-2.81,6.62,6.25,7.1,4.48,11.27a5.08,5.08,0,0,1-4.79,2.77,9.1,9.1,0,0,1-6-2.58l-2.68,4.39c1.63,1.48,3.89,2.4,7.55,2.4a12.94,12.94,0,0,0,11.8-7.72c3-7-6.06-7.53-4.53-11.15a5.22,5.22,0,0,1,4.72-2.78,8.13,8.13,0,0,1,5.3,2.22l2.62-4.43Z" transform="translate(-125.88 -327.02)"/><path class="cls-2" d="M355.36,441a23,23,0,0,0-5.41-.56c-9,0-14.4,5.32-16.47,10.2-1.79,4.21-.59,7.2,2.81,7.2a11,11,0,0,0,5.64-1.88l-.88,1.55h5L355.36,441ZM343.82,452.6a8.68,8.68,0,0,1-4.21,1.48c-1.52,0-1.94-1.18-1.07-3.21s3.84-6.87,9.77-6.25l-4.49,8Z" transform="translate(-125.88 -327.02)"/><path class="cls-2" d="M365,440.71h-5l-9.48,16.77h5L365,440.71Zm1.16-7.24a4.39,4.39,0,0,0-3.69,2.58c-.61,1.45.05,2.59,1.49,2.59a4.37,4.37,0,0,0,3.68-2.59c.61-1.44-.05-2.58-1.48-2.58Z" transform="translate(-125.88 -327.02)"/><path class="cls-2" d="M374.66,440.71h-5l-9.49,16.77h5l6.09-10.79c2.47-1.81,4.16-2.58,5.31-2.58,1.33,0,1,1.73.05,3.36l-5.65,10h5l5.85-10.38c1.93-3.44,2.28-6.69-1.6-6.69-2,0-3.95.63-6.64,2.18l1.09-1.88Z" transform="translate(-125.88 -327.02)"/><path class="cls-1" d="M398.31,437.16h-5.05l-2.1,3.55h-3.4l-2.19,3.69H389l-3.89,6.39c-2.12,3.51-2,7,2.12,7a12,12,0,0,0,4.73-1.07l1.87-4.39a9.81,9.81,0,0,1-3.3,1c-1.41,0-1-1.62.12-3.51l3.26-5.43h3.7l2.23-3.69h-3.69l2.2-3.55Z" transform="translate(-125.88 -327.02)"/><path class="cls-2" d="M413.48,449.8c3.45-5.36,2.32-9.39-2.92-9.39-5.06,0-10.83,4.1-13,9.24-2.1,5-.21,8.16,4.88,8.16a21.61,21.61,0,0,0,6.35-1.22l2.66-4.17c-3.2,1.11-5.37,1.7-6.92,1.7-2.4,0-3.43-1.59-2-4.32Zm-9.27-2.88c1.64-2.11,3.15-3.07,4.78-3.07s2.16,1.25,1.1,3.07Z" transform="translate(-125.88 -327.02)"/><polygon class="cls-1" points="302.97 119.6 291.41 119.6 288.55 124.7 300.07 124.7 302.97 119.6 302.97 119.6"/><polygon class="cls-1" points="328.88 105.27 314.37 105.27 300.13 130.46 305.49 130.46 311.61 119.67 319.48 119.67 321.86 115.46 313.99 115.46 317.35 109.48 326.46 109.48 328.88 105.27 328.88 105.27"/><path class="cls-2" d="M465.16,448.32c2-4.8-.15-7.91-5-7.91-5.32,0-11.46,4.21-13.63,9.31-1.93,4.55.26,8.09,5,8.09,5.4,0,11.29-4.13,13.56-9.49Zm-5.11-.15c-1,2.33-3.8,5.58-6.68,5.58-1.48,0-2.82-1.18-1.74-3.73.72-1.7,3.38-5.54,6.63-5.54,2,0,2.73,1.48,1.79,3.69Z" transform="translate(-125.88 -327.02)"/><polygon class="cls-2" points="361.38 113.69 356.17 113.69 347.59 123.48 348.46 113.69 343.47 113.69 342.37 128.91 333.23 138.96 338.47 138.96 361.38 113.69 361.38 113.69"/><path class="cls-2" d="M354.53,400h-5l-4.67,8.31a22.31,22.31,0,0,0-2.36-.18,16.06,16.06,0,0,0-14.38,9.34c-2.1,4.95.35,8.06,6.3,8.06a37,37,0,0,0,6-.56l14.11-25Zm-17,21.28a7.08,7.08,0,0,1-1.44.18c-2.77,0-3.83-1.51-2.79-3.95a8.73,8.73,0,0,1,9.15-5l-4.92,8.72Z" transform="translate(-125.88 -327.02)"/><path class="cls-2" d="M364.16,417.47c3.45-5.36,2.32-9.38-2.93-9.38-5.05,0-10.82,4.1-13,9.23-2.1,4.95-.21,8.17,4.88,8.17a22,22,0,0,0,6.35-1.22l2.66-4.18c-3.2,1.11-5.37,1.7-6.92,1.7-2.4,0-3.43-1.59-2-4.32Zm-9.27-2.88c1.64-2.11,3.15-3.07,4.78-3.07s2.16,1.26,1.09,3.07Z" transform="translate(-125.88 -327.02)"/><path class="cls-1" d="M373.17,368.23a23,23,0,0,0-6.44-.93c-9.71,0-18.93,5.88-22.52,14.34-2.91,6.87.06,11.52,7.37,11.52a27.52,27.52,0,0,0,9.71-2l3.16-5.62c-4.5,2.07-7.53,3-10.41,3-4.44,0-6.09-2.63-4.34-6.76a16.61,16.61,0,0,1,20.6-8.87l2.87-4.65Z" transform="translate(-125.88 -327.02)"/><path class="cls-2" d="M378.2,374.21h2.69l9.24-6.35h-5.95l-6,6.35Zm5.07,10.94c3.45-5.36,2.32-9.39-2.92-9.39-5.06,0-10.83,4.1-13,9.24-2.1,4.95-.21,8.16,4.88,8.16a21.61,21.61,0,0,0,6.35-1.22l2.66-4.17c-3.2,1.11-5.37,1.7-6.92,1.7-2.4,0-3.43-1.59-2-4.32ZM374,382.26c1.64-2.1,3.15-3.06,4.78-3.06s2.16,1.25,1.1,3.06Z" transform="translate(-125.88 -327.02)"/><path class="cls-2" d="M407.35,376.06H398a11.44,11.44,0,0,0-10.1,6.31c-.89,2.11-.63,3.66.86,4.84a9.28,9.28,0,0,0-2.5.85,5,5,0,0,0-2.21,2.26,2.37,2.37,0,0,0,1,3.1c-3.18.89-5,2.14-5.74,3.77-.78,1.85-.2,4.14,6.22,4.14,6.83,0,9.79-2.7,11-5.47,2.72-6.39-8.2-4.51-7.38-6.43.29-.7,1-.89,3.4-.89a10.58,10.58,0,0,0,9.62-6.13,5.43,5.43,0,0,0,.5-2.66h2.69l2.05-3.69Zm-9.61,5.76c-.73,1.74-2.09,3.62-4.26,3.62-1.45,0-2-.85-1.34-2.33,1-2.4,2.52-3.69,4.3-3.69,1.44,0,1.93.92,1.3,2.4Zm-9.85,12.6c2.71.66,4.18.85,3.65,2.1s-1.78,1.59-4.59,1.59c-2.58,0-3.45-.55-2.95-1.73.39-.93,1.48-1.67,3.89-2Z" transform="translate(-125.88 -327.02)"/><path class="cls-2" d="M420.18,385.15c3.46-5.36,2.32-9.39-2.92-9.39-5.06,0-10.82,4.1-13,9.24-2.1,4.95-.22,8.16,4.88,8.16a21.72,21.72,0,0,0,6.35-1.22l2.66-4.17c-3.21,1.11-5.38,1.7-6.93,1.7-2.4,0-3.42-1.59-2-4.32Zm-9.26-2.89c1.63-2.1,3.15-3.06,4.77-3.06s2.16,1.25,1.1,3.06Z" transform="translate(-125.88 -327.02)"/><path class="cls-2" d="M437.19,372.81h-5l-3.45,6.13c-4.61,2.77-7.1,6-7.35,6.61-.08.19,0,.33.15.33.89,0,1.64-1.51,5.29-3.58l-10.73,19h5l4.79-8.5a6.75,6.75,0,0,0,2.11.33c5.87,0,12.42-4.47,14.8-10.08,1.87-4.4.15-7.32-4.24-7.32-.41,0-.94,0-1.47.08a14.22,14.22,0,0,0-1.72.22l1.82-3.25Zm-3.87,6.87c4.07-.81,5.51.59,4.27,3.51-1,2.4-3.8,5.91-8,5.91a2.46,2.46,0,0,1-1.38-.33l5.12-9.09Z" transform="translate(-125.88 -327.02)"/></svg>