<svg width="162" height="131" viewBox="0 0 162 131" fill="none" xmlns="http://www.w3.org/2000/svg">
<path d="M161.074 33.7705V105.126C161.074 111.764 158.433 118.131 153.731 122.825C149.028 127.519 142.651 130.156 136.001 130.156H25.6809C19.0311 130.156 12.6538 127.519 7.9517 122.825C3.24963 118.131 0.608032 111.764 0.608032 105.126V33.7705L78.2937 79.4051C79.0655 79.8595 79.9451 80.0992 80.8411 80.0992C81.7371 80.0992 82.6168 79.8595 83.3885 79.4051L161.074 33.7705ZM136.001 3.09898e-07C142.171 -0.000968319 148.124 2.26878 152.722 6.37503C157.32 10.4813 160.24 16.1357 160.924 22.2567L80.8411 69.283L0.75847 22.2567C1.44204 16.1357 4.36218 10.4813 8.96025 6.37503C13.5583 2.26878 19.5115 -0.000968319 25.6809 3.09898e-07H136.001Z" fill="#FFD400"/>
</svg>
