<svg width="100" height="100" viewBox="0 0 100 100" fill="none" xmlns="http://www.w3.org/2000/svg">
<circle cx="50" cy="50" r="50" fill="#111111"/>
<path d="M42.9107 32H56.0893V28.25C56.0893 27.0078 57.0685 26 58.2857 26C59.5029 26 60.4821 27.0078 60.4821 28.25V32H64.1429C67.3734 32 70 34.6859 70 38V68C70 71.3094 67.3734 74 64.1429 74H34.8571C31.622 74 29 71.3094 29 68V38C29 34.6859 31.622 32 34.8571 32H38.5179V28.25C38.5179 27.0078 39.4971 26 40.7143 26C41.9315 26 42.9107 27.0078 42.9107 28.25V32ZM33.3929 49.25H40.7143V44H33.3929V49.25ZM33.3929 53.75V59.75H40.7143V53.75H33.3929ZM45.1071 53.75V59.75H53.8929V53.75H45.1071ZM58.2857 53.75V59.75H65.6071V53.75H58.2857ZM65.6071 44H58.2857V49.25H65.6071V44ZM65.6071 64.25H58.2857V69.5H64.1429C64.9482 69.5 65.6071 68.825 65.6071 68V64.25ZM53.8929 64.25H45.1071V69.5H53.8929V64.25ZM40.7143 64.25H33.3929V68C33.3929 68.825 34.0481 69.5 34.8571 69.5H40.7143V64.25ZM53.8929 44H45.1071V49.25H53.8929V44Z" fill="white"/>
</svg>
