<svg width="100" height="100" viewBox="0 0 100 100" fill="none" xmlns="http://www.w3.org/2000/svg">
<circle cx="50" cy="50" r="50" fill="#111111"/>
<path d="M26.0058 73.0285C26.0076 73.1579 26.0349 73.2857 26.086 73.4045C26.1372 73.5234 26.2113 73.631 26.3041 73.7212C26.3969 73.8114 26.5065 73.8824 26.6268 73.9302C26.747 73.978 26.8755 74.0017 27.0049 73.9999H72.9918C73.1213 74.0019 73.2499 73.9783 73.3703 73.9306C73.4907 73.8828 73.6005 73.8118 73.6934 73.7216C73.7863 73.6314 73.8606 73.5237 73.9118 73.4048C73.9631 73.2859 73.9904 73.158 73.9922 73.0285V71.8689C74.015 71.519 74.0617 69.7759 72.9123 67.847C72.1872 66.6306 71.135 65.5809 69.7847 64.7245C68.1515 63.6887 66.0737 62.9397 63.56 62.4887C62.284 62.3092 61.0183 62.0629 59.7681 61.751C56.4435 60.9022 56.153 60.1506 56.1505 60.143C56.1313 60.0688 56.1033 59.9972 56.0671 59.9296C56.0393 59.7906 55.9724 59.2626 56.1012 57.8491C56.4271 54.258 58.3534 52.1359 59.9007 50.4306C60.3883 49.8938 60.8493 49.3847 61.2043 48.887C62.7364 46.7397 62.8779 44.2954 62.8842 44.1439C62.89 43.8753 62.8529 43.6075 62.7743 43.3506C62.6228 42.8832 62.3411 42.5927 62.1339 42.378C62.0849 42.3288 62.0373 42.2783 61.9912 42.2264C61.976 42.2087 61.9356 42.1607 61.9723 41.9194C62.0961 41.1422 62.1817 40.3594 62.2287 39.5738C62.2994 38.3081 62.3537 36.4159 62.0266 34.5729C61.9785 34.2209 61.9059 33.8727 61.8093 33.5308C61.4645 32.2626 60.9112 31.1788 60.142 30.2845C60.0093 30.1392 56.7909 26.7477 47.4475 26.0529C46.1553 25.9569 44.8783 26.0087 43.6202 26.0731C43.2481 26.0814 42.8778 26.1271 42.5149 26.2095C41.5499 26.4584 41.2922 27.0698 41.2253 27.4121C41.1128 27.9805 41.3099 28.4201 41.44 28.7131C41.4589 28.7548 41.4829 28.8066 41.4413 28.943C41.2253 29.279 40.883 29.5822 40.5356 29.8689C40.4345 29.9535 38.0927 31.9746 37.9639 34.6133C37.6165 36.6205 37.6418 39.7468 38.0523 41.9081C38.0775 42.0281 38.1116 42.2049 38.0548 42.3249C37.6127 42.7203 37.1125 43.1687 37.1138 44.1919C37.1188 44.2954 37.2616 46.7384 38.7937 48.887C39.1474 49.3847 39.6085 49.8925 40.0948 50.4293L40.0973 50.4306C41.6446 52.1359 43.5709 54.258 43.8968 57.8479C44.0244 59.2626 43.9574 59.7894 43.9309 59.9296C43.8942 59.9971 43.8658 60.0687 43.8463 60.143C43.845 60.1506 43.5558 60.8997 40.2463 61.7472C38.3365 62.2361 36.4569 62.4862 36.4001 62.4925C33.9572 62.9056 31.892 63.6369 30.2613 64.6664C28.916 65.5165 27.8613 66.57 27.1287 67.7952C25.9565 69.7531 25.9881 71.5367 26.0045 71.8626V73.0285H26.0058Z" stroke="white" stroke-width="4" stroke-linejoin="round"/>
</svg>
