<svg width="101" height="100" viewBox="0 0 101 100" fill="none" xmlns="http://www.w3.org/2000/svg">
<ellipse cx="50.5" cy="50" rx="50.5" ry="50" fill="#111111"/>
<path d="M39.0582 67.5719C39.8976 68.1075 40.9694 68.2681 41.9756 67.928L48.9096 65.6142C49.6133 65.3792 50.3768 65.3792 51.0805 65.6142L58.0145 67.928C59.0206 68.2655 60.0925 68.1075 60.9319 67.5719V78L49.995 74.3633L39.0582 78V67.5719V67.5719ZM49.1119 61.225L43.474 63.1076C42.8428 63.3181 42.1548 63.2955 41.5395 63.044C40.9242 62.7925 40.4239 62.3294 40.1328 61.7418L37.3849 56.2118C37.1324 55.7008 36.7207 55.2816 36.2092 55.0147L30.7408 52.176C30.178 51.8829 29.7375 51.4064 29.4954 50.8289C29.2532 50.2514 29.2247 49.6092 29.4147 49.0133L31.356 42.9262C31.5216 42.4065 31.5216 41.8498 31.356 41.3301L29.4147 35.243C29.2242 34.6464 29.2528 34.0034 29.4955 33.4253C29.7381 32.8472 30.1797 32.3704 30.7435 32.0776L36.2092 29.2389C36.7203 28.9727 37.132 28.5545 37.3849 28.0445L40.1328 22.5064C40.4244 21.9194 40.9248 21.4569 41.5401 21.2059C42.1554 20.9549 42.8431 20.9326 43.474 21.1433L49.1119 23.026C49.6844 23.2174 50.3056 23.2174 50.8782 23.026L56.5161 21.1433C57.1473 20.9328 57.8353 20.9555 58.4506 21.207C59.0659 21.4585 59.5662 21.9216 59.8573 22.5091L62.6052 28.0419C62.8577 28.5529 63.2694 28.972 63.7809 29.2389L69.2493 32.0776C69.8121 32.3707 70.2526 32.8472 70.4947 33.4247C70.7369 34.0022 70.7654 34.6444 70.5754 35.2403L68.6341 41.3274C68.4685 41.8471 68.4685 42.4039 68.6341 42.9235L70.5754 49.0106C70.7659 49.6072 70.7373 50.2503 70.4946 50.8284C70.2519 51.4065 69.8104 51.8832 69.2466 52.176L63.7809 55.0147C63.2698 55.2809 62.8581 55.6991 62.6052 56.2091L59.8573 61.7445C59.5657 62.3316 59.0652 62.7941 58.45 63.0451C57.8347 63.2961 57.147 63.3183 56.5161 63.1076L50.8782 61.225C50.3056 61.0336 49.6844 61.0336 49.1119 61.225V61.225ZM49.995 34.0915C49.2699 34.0915 48.5744 34.3736 48.0617 34.8758C47.5489 35.3781 47.2608 36.0592 47.2608 36.7695V47.4815C47.2608 48.1917 47.5489 48.8729 48.0617 49.3751C48.5744 49.8773 49.2699 50.1595 49.995 50.1595C50.7202 50.1595 51.4157 49.8773 51.9284 49.3751C52.4412 48.8729 52.7292 48.1917 52.7292 47.4815V36.7695C52.7292 36.0592 52.4412 35.3781 51.9284 34.8758C51.4157 34.3736 50.7202 34.0915 49.995 34.0915V34.0915Z" fill="white"/>
</svg>
